P3
# Created by GIMP version 2.10.34 PNM plug-in
48 48
255
153
217
234
153
217
234
153
217
234
153
217
234
153
217
234
153
217
234
153
217
234
153
217
234
153
217
234
153
217
234
153
217
234
153
217
234
153
217
234
153
217
234
153
217
234
153
217
234
153
217
234
153
217
234
153
217
234
153
217
234
153
217
234
153
217
234
153
217
234
153
217
234
153
217
234
153
217
234
153
217
234
153
217
234
153
217
234
153
217
234
153
217
234
153
217
234
153
217
234
153
217
234
153
217
234
153
217
234
153
217
234
153
217
234
153
217
234
153
217
234
153
217
234
153
217
234
153
217
234
153
217
234
153
217
234
153
217
234
153
217
234
153
217
234
153
217
234
153
217
234
153
217
234
153
217
234
153
217
234
153
217
234
153
217
234
153
217
234
153
217
234
153
217
234
153
217
234
153
217
234
153
217
234
153
217
234
153
217
234
153
217
234
153
217
234
153
217
234
153
217
234
153
217
234
153
217
234
153
217
234
153
217
234
153
217
234
153
217
234
153
217
234
153
217
234
153
217
234
153
217
234
153
217
234
153
217
234
153
217
234
153
217
234
153
217
234
153
217
234
153
217
234
153
217
234
153
217
234
153
217
234
153
217
234
153
217
234
153
217
234
153
217
234
153
217
234
153
217
234
153
217
234
153
217
234
153
217
234
153
217
234
153
217
234
153
217
234
153
217
234
153
217
234
153
217
234
153
217
234
153
217
234
153
217
234
153
217
234
153
217
234
153
217
234
153
217
234
153
217
234
153
217
234
153
217
234
153
217
234
153
217
234
153
217
234
153
217
234
153
217
234
153
217
234
153
217
234
153
217
234
153
217
234
153
217
234
153
217
234
153
217
234
153
217
234
153
217
234
153
217
234
153
217
234
153
217
234
153
217
234
153
217
234
153
217
234
153
217
234
153
217
234
153
217
234
153
217
234
153
217
234
153
217
234
153
217
234
153
217
234
153
217
234
153
217
234
153
217
234
153
217
234
153
217
234
153
217
234
153
217
234
153
217
234
153
217
234
153
217
234
153
217
234
153
217
234
153
217
234
153
217
234
153
217
234
153
217
234
153
217
234
153
217
234
153
217
234
153
217
234
153
217
234
153
217
234
153
217
234
153
217
234
153
217
234
153
217
234
153
217
234
153
217
234
153
217
234
153
217
234
153
217
234
153
217
234
153
217
234
153
217
234
153
217
234
153
217
234
153
217
234
153
217
234
153
217
234
153
217
234
153
217
234
153
217
234
153
217
234
153
217
234
153
217
234
153
217
234
153
217
234
153
217
234
153
217
234
153
217
234
153
217
234
153
217
234
153
217
234
153
217
234
153
217
234
153
217
234
153
217
234
153
217
234
153
217
234
153
217
234
153
217
234
153
217
234
153
217
234
153
217
234
153
217
234
153
217
234
153
217
234
153
217
234
153
217
234
153
217
234
153
217
234
153
217
234
153
217
234
153
217
234
153
217
234
153
217
234
153
217
234
153
217
234
153
217
234
153
217
234
153
217
234
153
217
234
153
217
234
153
217
234
153
217
234
153
217
234
153
217
234
153
217
234
153
217
234
153
217
234
153
217
234
153
217
234
153
217
234
153
217
234
153
217
234
153
217
234
153
217
234
153
217
234
153
217
234
153
217
234
153
217
234
153
217
234
153
217
234
153
217
234
153
217
234
153
217
234
153
217
234
153
217
234
153
217
234
153
217
234
153
217
234
153
217
234
153
217
234
153
217
234
153
217
234
153
217
234
153
217
234
153
217
234
153
217
234
153
217
234
153
217
234
153
217
234
153
217
234
153
217
234
153
217
234
153
217
234
153
217
234
153
217
234
153
217
234
153
217
234
153
217
234
153
217
234
153
217
234
153
217
234
153
217
234
153
217
234
153
217
234
153
217
234
153
217
234
153
217
234
153
217
234
153
217
234
153
217
234
153
217
234
153
217
234
153
217
234
153
217
234
153
217
234
153
217
234
153
217
234
153
217
234
153
217
234
153
217
234
153
217
234
153
217
234
153
217
234
153
217
234
153
217
234
153
217
234
153
217
234
153
217
234
153
217
234
153
217
234
153
217
234
153
217
234
153
217
234
153
217
234
153
217
234
153
217
234
153
217
234
153
217
234
153
217
234
153
217
234
153
217
234
153
217
234
153
217
234
153
217
234
153
217
234
153
217
234
153
217
234
153
217
234
153
217
234
153
217
234
153
217
234
153
217
234
153
217
234
153
217
234
153
217
234
153
217
234
153
217
234
153
217
234
153
217
234
153
217
234
153
217
234
153
217
234
153
217
234
153
217
234
153
217
234
153
217
234
153
217
234
153
217
234
153
217
234
153
217
234
153
217
234
153
217
234
153
217
234
153
217
234
153
217
234
153
217
234
153
217
234
153
217
234
153
217
234
153
217
234
153
217
234
153
217
234
153
217
234
153
217
234
153
217
234
153
217
234
153
217
234
153
217
234
153
217
234
153
217
234
153
217
234
153
217
234
153
217
234
153
217
234
153
217
234
153
217
234
153
217
234
153
217
234
153
217
234
153
217
234
153
217
234
153
217
234
153
217
234
153
217
234
153
217
234
153
217
234
153
217
234
153
217
234
153
217
234
153
217
234
153
217
234
153
217
234
153
217
234
153
217
234
153
217
234
153
217
234
153
217
234
153
217
234
153
217
234
153
217
234
153
217
234
153
217
234
153
217
234
153
217
234
153
217
234
153
217
234
153
217
234
153
217
234
153
217
234
153
217
234
153
217
234
153
217
234
153
217
234
153
217
234
153
217
234
153
217
234
153
217
234
153
217
234
153
217
234
153
217
234
153
217
234
153
217
234
153
217
234
153
217
234
153
217
234
153
217
234
153
217
234
153
217
234
153
217
234
153
217
234
153
217
234
153
217
234
153
217
234
153
217
234
153
217
234
153
217
234
153
217
234
153
217
234
153
217
234
153
217
234
153
217
234
153
217
234
153
217
234
153
217
234
153
217
234
153
217
234
153
217
234
153
217
234
153
217
234
153
217
234
153
217
234
153
217
234
153
217
234
153
217
234
153
217
234
153
217
234
153
217
234
153
217
234
153
217
234
153
217
234
153
217
234
153
217
234
153
217
234
153
217
234
153
217
234
153
217
234
153
217
234
153
217
234
153
217
234
153
217
234
153
217
234
153
217
234
153
217
234
153
217
234
153
217
234
153
217
234
153
217
234
153
217
234
153
217
234
153
217
234
153
217
234
153
217
234
153
217
234
153
217
234
153
217
234
153
217
234
153
217
234
153
217
234
153
217
234
153
217
234
153
217
234
153
217
234
153
217
234
153
217
234
153
217
234
153
217
234
153
217
234
153
217
234
153
217
234
153
217
234
153
217
234
153
217
234
153
217
234
153
217
234
153
217
234
153
217
234
153
217
234
153
217
234
153
217
234
153
217
234
153
217
234
153
217
234
153
217
234
153
217
234
153
217
234
153
217
234
153
217
234
153
217
234
153
217
234
153
217
234
153
217
234
153
217
234
153
217
234
153
217
234
153
217
234
153
217
234
153
217
234
153
217
234
153
217
234
153
217
234
153
217
234
153
217
234
153
217
234
153
217
234
153
217
234
153
217
234
153
217
234
153
217
234
153
217
234
153
217
234
153
217
234
153
217
234
153
217
234
153
217
234
153
217
234
153
217
234
153
217
234
153
217
234
153
217
234
153
217
234
153
217
234
153
217
234
153
217
234
153
217
234
153
217
234
153
217
234
153
217
234
153
217
234
153
217
234
153
217
234
153
217
234
153
217
234
153
217
234
153
217
234
153
217
234
153
217
234
153
217
234
153
217
234
153
217
234
153
217
234
153
217
234
153
217
234
153
217
234
153
217
234
153
217
234
153
217
234
153
217
234
153
217
234
153
217
234
153
217
234
153
217
234
153
217
234
153
217
234
153
217
234
153
217
234
153
217
234
153
217
234
153
217
234
153
217
234
153
217
234
153
217
234
153
217
234
153
217
234
153
217
234
153
217
234
153
217
234
153
217
234
153
217
234
153
217
234
153
217
234
153
217
234
153
217
234
153
217
234
153
217
234
153
217
234
153
217
234
153
217
234
153
217
234
153
217
234
153
217
234
153
217
234
153
217
234
153
217
234
153
217
234
153
217
234
153
217
234
153
217
234
153
217
234
153
217
234
153
217
234
153
217
234
153
217
234
153
217
234
153
217
234
153
217
234
153
217
234
153
217
234
153
217
234
153
217
234
153
217
234
153
217
234
153
217
234
153
217
234
153
217
234
153
217
234
153
217
234
153
217
234
153
217
234
153
217
234
153
217
234
153
217
234
153
217
234
153
217
234
153
217
234
153
217
234
153
217
234
153
217
234
153
217
234
153
217
234
153
217
234
153
217
234
153
217
234
153
217
234
153
217
234
153
217
234
153
217
234
153
217
234
153
217
234
153
217
234
153
217
234
153
217
234
153
217
234
153
217
234
153
217
234
153
217
234
153
217
234
153
217
234
153
217
234
153
217
234
153
217
234
153
217
234
153
217
234
153
217
234
153
217
234
153
217
234
153
217
234
153
217
234
153
217
234
153
217
234
153
217
234
153
217
234
153
217
234
153
217
234
153
217
234
153
217
234
153
217
234
153
217
234
153
217
234
153
217
234
153
217
234
153
217
234
153
217
234
153
217
234
153
217
234
153
217
234
153
217
234
153
217
234
153
217
234
153
217
234
153
217
234
153
217
234
153
217
234
153
217
234
153
217
234
153
217
234
153
217
234
153
217
234
153
217
234
153
217
234
153
217
234
153
217
234
153
217
234
153
217
234
153
217
234
153
217
234
153
217
234
153
217
234
153
217
234
153
217
234
153
217
234
153
217
234
153
217
234
153
217
234
153
217
234
153
217
234
153
217
234
153
217
234
153
217
234
0
0
0
0
0
0
0
0
0
153
217
234
153
217
234
153
217
234
153
217
234
153
217
234
153
217
234
153
217
234
153
217
234
153
217
234
153
217
234
153
217
234
153
217
234
153
217
234
153
217
234
153
217
234
153
217
234
153
217
234
153
217
234
153
217
234
153
217
234
153
217
234
153
217
234
153
217
234
153
217
234
153
217
234
153
217
234
153
217
234
153
217
234
153
217
234
153
217
234
153
217
234
153
217
234
153
217
234
153
217
234
153
217
234
153
217
234
153
217
234
153
217
234
153
217
234
153
217
234
153
217
234
153
217
234
153
217
234
153
217
234
153
217
234
153
217
234
153
217
234
0
0
0
0
0
0
0
0
0
153
217
234
153
217
234
153
217
234
153
217
234
153
217
234
153
217
234
153
217
234
153
217
234
153
217
234
153
217
234
153
217
234
153
217
234
153
217
234
153
217
234
153
217
234
153
217
234
153
217
234
153
217
234
153
217
234
153
217
234
153
217
234
153
217
234
153
217
234
153
217
234
153
217
234
153
217
234
153
217
234
153
217
234
153
217
234
153
217
234
153
217
234
153
217
234
153
217
234
153
217
234
153
217
234
153
217
234
153
217
234
153
217
234
153
217
234
153
217
234
153
217
234
153
217
234
153
217
234
153
217
234
153
217
234
153
217
234
153
217
234
0
0
0
0
0
0
153
217
234
153
217
234
153
217
234
153
217
234
153
217
234
153
217
234
153
217
234
153
217
234
153
217
234
153
217
234
153
217
234
153
217
234
153
217
234
153
217
234
153
217
234
153
217
234
153
217
234
153
217
234
153
217
234
153
217
234
153
217
234
153
217
234
153
217
234
153
217
234
153
217
234
153
217
234
153
217
234
153
217
234
153
217
234
153
217
234
153
217
234
153
217
234
153
217
234
153
217
234
153
217
234
153
217
234
153
217
234
153
217
234
153
217
234
153
217
234
153
217
234
0
0
0
0
0
0
153
217
234
153
217
234
153
217
234
153
217
234
0
0
0
0
0
0
0
0
0
0
0
0
0
0
0
0
0
0
0
0
0
0
0
0
0
0
0
153
217
234
153
217
234
153
217
234
153
217
234
153
217
234
153
217
234
153
217
234
153
217
234
153
217
234
153
217
234
153
217
234
153
217
234
153
217
234
153
217
234
153
217
234
153
217
234
153
217
234
153
217
234
153
217
234
153
217
234
153
217
234
153
217
234
153
217
234
153
217
234
153
217
234
153
217
234
153
217
234
153
217
234
153
217
234
153
217
234
153
217
234
153
217
234
153
217
234
153
217
234
0
0
0
0
0
0
0
0
0
0
0
0
0
0
0
0
0
0
0
0
0
255
255
255
255
255
255
0
0
0
0
0
0
0
0
0
0
0
0
0
0
0
0
0
0
153
217
234
153
217
234
153
217
234
153
217
234
153
217
234
153
217
234
153
217
234
153
217
234
153
217
234
0
0
0
0
0
0
0
0
0
0
0
0
0
0
0
0
0
0
0
0
0
0
0
0
0
0
0
0
0
0
0
0
0
0
0
0
153
217
234
153
217
234
153
217
234
153
217
234
153
217
234
153
217
234
153
217
234
153
217
234
153
217
234
153
217
234
153
217
234
153
217
234
153
217
234
153
217
234
153
217
234
153
217
234
0
0
0
255
255
255
255
255
255
0
0
0
0
0
0
255
255
255
0
0
0
0
0
0
0
0
0
0
0
0
0
0
0
0
0
0
153
217
234
153
217
234
153
217
234
153
217
234
153
217
234
153
217
234
153
217
234
0
0
0
0
0
0
0
0
0
0
0
0
0
0
0
0
0
0
0
0
0
0
0
0
0
0
0
0
0
0
0
0
0
0
0
0
0
0
0
0
0
0
0
0
0
0
0
0
153
217
234
153
217
234
153
217
234
153
217
234
153
217
234
153
217
234
153
217
234
153
217
234
153
217
234
153
217
234
153
217
234
153
217
234
153
217
234
255
255
255
255
255
255
0
0
0
0
0
0
0
0
0
180
180
180
0
0
0
0
0
0
0
0
0
0
0
0
0
0
0
0
0
0
0
0
0
153
217
234
153
217
234
153
217
234
153
217
234
0
0
0
0
0
0
0
0
0
0
0
0
0
0
0
0
0
0
0
0
0
0
0
0
0
0
0
255
255
255
255
255
255
0
0
0
0
0
0
0
0
0
180
180
180
255
255
255
255
255
255
0
0
0
0
0
0
0
0
0
153
217
234
153
217
234
153
217
234
153
217
234
153
217
234
153
217
234
153
217
234
153
217
234
153
217
234
153
217
234
153
217
234
255
255
255
0
0
0
0
0
0
0
0
0
0
0
0
180
180
180
0
0
0
0
0
0
0
0
0
0
0
0
0
0
0
0
0
0
0
0
0
0
0
0
0
0
0
0
0
0
0
0
0
0
0
0
0
0
0
0
0
0
0
0
0
255
255
255
255
255
255
255
255
255
0
0
0
0
0
0
0
0
0
180
180
180
180
180
180
255
255
255
0
0
0
0
0
0
0
0
0
180
180
180
0
0
0
0
0
0
0
0
0
0
0
0
0
0
0
153
217
234
153
217
234
153
217
234
153
217
234
153
217
234
153
217
234
153
217
234
153
217
234
153
217
234
180
180
180
180
180
180
0
0
0
0
0
0
180
180
180
180
180
180
0
0
0
0
0
0
0
0
0
0
0
0
0
0
0
0
0
0
0
0
0
0
0
0
0
0
0
0
0
0
0
0
0
0
0
0
0
0
0
0
0
0
0
0
0
0
0
0
0
0
0
180
180
180
0
0
0
0
0
0
0
0
0
0
0
0
0
0
0
180
180
180
0
0
0
0
0
0
0
0
0
0
0
0
255
255
255
0
0
0
0
0
0
0
0
0
0
0
0
0
0
0
153
217
234
153
217
234
153
217
234
153
217
234
153
217
234
153
217
234
153
217
234
153
217
234
0
0
0
180
180
180
180
180
180
180
180
180
180
180
180
0
0
0
0
0
0
0
0
0
0
0
0
0
0
0
0
0
0
0
0
0
0
0
0
0
0
0
0
0
0
0
0
0
0
0
0
0
0
0
0
0
0
0
0
0
0
0
0
0
0
0
0
0
0
180
180
180
180
180
180
0
0
0
0
0
0
0
0
0
0
0
0
180
180
180
255
255
255
0
0
0
0
0
0
0
0
0
180
180
180
180
180
180
0
0
0
0
0
0
0
0
0
0
0
0
153
217
234
153
217
234
153
217
234
153
217
234
153
217
234
153
217
234
153
217
234
153
217
234
0
0
0
0
0
0
0
0
0
0
0
0
0
0
0
0
0
0
0
0
0
0
0
0
0
0
0
0
0
0
0
0
0
0
0
0
0
0
0
0
0
0
0
0
0
0
0
0
0
0
0
0
0
0
0
0
0
0
0
0
0
0
0
0
0
0
0
0
0
0
0
0
180
180
180
0
0
0
0
0
0
0
0
0
0
0
0
0
0
0
180
180
180
0
0
0
0
0
0
0
0
0
0
0
0
180
180
180
0
0
0
0
0
0
0
0
0
0
0
0
0
0
0
153
217
234
153
217
234
153
217
234
153
217
234
153
217
234
153
217
234
153
217
234
0
0
0
0
0
0
0
0
0
0
0
0
0
0
0
0
0
0
0
0
0
0
0
0
0
0
0
0
0
0
0
0
0
0
0
0
0
0
0
0
0
0
0
0
0
0
0
0
0
0
0
0
0
0
0
0
0
0
0
0
0
0
0
0
0
0
0
0
0
0
0
0
0
0
0
0
0
0
0
0
0
0
0
0
0
0
0
0
0
0
180
180
180
0
0
0
0
0
0
0
0
0
0
0
0
0
0
0
0
0
0
0
0
0
0
0
0
0
0
0
0
0
0
153
217
234
153
217
234
153
217
234
153
217
234
153
217
234
153
217
234
153
217
234
0
0
0
153
217
234
153
217
234
0
0
0
0
0
0
0
0
0
0
0
0
0
0
0
0
0
0
0
0
0
0
0
0
0
0
0
0
0
0
0
0
0
0
0
0
0
0
0
153
217
234
0
0
0
153
217
234
0
0
0
0
0
0
0
0
0
0
0
0
0
0
0
0
0
0
0
0
0
0
0
0
0
0
0
0
0
0
0
0
0
0
0
0
0
0
0
0
0
0
0
0
0
0
0
0
0
0
0
0
0
0
0
0
0
0
0
0
0
0
0
0
0
0
153
217
234
153
217
234
153
217
234
153
217
234
153
217
234
153
217
234
153
217
234
153
217
234
153
217
234
0
0
0
0
0
0
0
0
0
0
0
0
0
0
0
0
0
0
0
0
0
0
0
0
0
0
0
0
0
0
0
0
0
153
217
234
153
217
234
0
0
0
0
0
0
153
217
234
0
0
0
0
0
0
0
0
0
0
0
0
0
0
0
0
0
0
0
0
0
0
0
0
0
0
0
0
0
0
0
0
0
0
0
0
0
0
0
0
0
0
0
0
0
0
0
0
0
0
0
0
0
0
0
0
0
0
0
0
0
0
0
0
0
0
0
0
0
153
217
234
153
217
234
153
217
234
153
217
234
153
217
234
153
217
234
153
217
234
153
217
234
0
0
0
0
0
0
0
0
0
0
0
0
0
0
0
0
0
0
0
0
0
0
0
0
0
0
0
0
0
0
0
0
0
153
217
234
153
217
234
153
217
234
0
0
0
0
0
0
0
0
0
0
0
0
0
0
0
0
0
0
0
0
0
0
0
0
0
0
0
0
0
0
0
0
0
0
0
0
0
0
0
0
0
0
0
0
0
0
0
0
0
0
0
0
0
0
0
0
0
0
0
0
0
0
0
0
0
0
0
0
0
0
0
0
153
217
234
153
217
234
153
217
234
153
217
234
153
217
234
153
217
234
153
217
234
153
217
234
153
217
234
153
217
234
153
217
234
153
217
234
153
217
234
0
0
0
0
0
0
0
0
0
153
217
234
0
0
0
0
0
0
153
217
234
153
217
234
153
217
234
153
217
234
0
0
0
0
0
0
153
217
234
0
0
0
0
0
0
0
0
0
0
0
0
0
0
0
0
0
0
0
0
0
0
0
0
0
0
0
0
0
0
0
0
0
0
0
0
0
0
0
0
0
0
0
0
0
0
0
0
0
0
0
0
0
0
0
0
0
0
0
0
153
217
234
153
217
234
153
217
234
153
217
234
153
217
234
153
217
234
153
217
234
153
217
234
153
217
234
153
217
234
153
217
234
153
217
234
153
217
234
153
217
234
0
0
0
0
0
0
153
217
234
153
217
234
0
0
0
0
0
0
153
217
234
153
217
234
153
217
234
153
217
234
153
217
234
0
0
0
153
217
234
0
0
0
153
217
234
153
217
234
0
0
0
0
0
0
153
217
234
153
217
234
153
217
234
0
0
0
0
0
0
0
0
0
0
0
0
0
0
0
0
0
0
0
0
0
0
0
0
0
0
0
0
0
0
0
0
0
153
217
234
153
217
234
153
217
234
153
217
234
153
217
234
153
217
234
153
217
234
153
217
234
153
217
234
153
217
234
153
217
234
153
217
234
153
217
234
153
217
234
0
0
0
0
0
0
0
0
0
153
217
234
153
217
234
0
0
0
153
217
234
153
217
234
153
217
234
153
217
234
153
217
234
153
217
234
0
0
0
0
0
0
153
217
234
0
0
0
153
217
234
153
217
234
0
0
0
0
0
0
0
0
0
153
217
234
153
217
234
153
217
234
153
217
234
153
217
234
0
0
0
0
0
0
0
0
0
153
217
234
153
217
234
153
217
234
153
217
234
153
217
234
153
217
234
153
217
234
153
217
234
153
217
234
153
217
234
153
217
234
153
217
234
153
217
234
153
217
234
0
0
0
0
0
0
0
0
0
0
0
0
0
0
0
153
217
234
153
217
234
153
217
234
0
0
0
0
0
0
0
0
0
153
217
234
153
217
234
153
217
234
153
217
234
153
217
234
0
0
0
0
0
0
153
217
234
0
0
0
0
0
0
153
217
234
153
217
234
153
217
234
0
0
0
0
0
0
0
0
0
0
0
0
153
217
234
153
217
234
153
217
234
153
217
234
153
217
234
0
0
0
0
0
0
153
217
234
153
217
234
153
217
234
153
217
234
153
217
234
153
217
234
153
217
234
153
217
234
153
217
234
153
217
234
153
217
234
153
217
234
153
217
234
153
217
234
153
217
234
153
217
234
153
217
234
153
217
234
0
0
0
0
0
0
0
0
0
0
0
0
153
217
234
153
217
234
153
217
234
153
217
234
153
217
234
153
217
234
153
217
234
0
0
0
153
217
234
153
217
234
0
0
0
153
217
234
153
217
234
153
217
234
153
217
234
153
217
234
153
217
234
153
217
234
153
217
234
0
0
0
0
0
0
0
0
0
153
217
234
153
217
234
153
217
234
0
0
0
0
0
0
0
0
0
0
0
0
153
217
234
153
217
234
153
217
234
153
217
234
153
217
234
153
217
234
153
217
234
153
217
234
153
217
234
153
217
234
153
217
234
153
217
234
153
217
234
153
217
234
0
0
0
0
0
0
153
217
234
153
217
234
153
217
234
153
217
234
153
217
234
153
217
234
153
217
234
153
217
234
0
0
0
0
0
0
153
217
234
153
217
234
0
0
0
0
0
0
153
217
234
153
217
234
153
217
234
153
217
234
153
217
234
153
217
234
153
217
234
153
217
234
153
217
234
153
217
234
153
217
234
0
0
0
0
0
0
0
0
0
0
0
0
153
217
234
153
217
234
0
0
0
0
0
0
0
0
0
0
0
0
153
217
234
153
217
234
153
217
234
153
217
234
153
217
234
153
217
234
153
217
234
153
217
234
153
217
234
0
0
0
0
0
0
0
0
0
153
217
234
153
217
234
153
217
234
153
217
234
153
217
234
0
0
0
0
0
0
0
0
0
0
0
0
0
0
0
153
217
234
153
217
234
153
217
234
0
0
0
153
217
234
153
217
234
153
217
234
153
217
234
153
217
234
153
217
234
153
217
234
153
217
234
153
217
234
153
217
234
153
217
234
153
217
234
153
217
234
153
217
234
153
217
234
153
217
234
0
0
0
0
0
0
0
0
0
153
217
234
153
217
234
0
0
0
0
0
0
0
0
0
153
217
234
153
217
234
153
217
234
153
217
234
153
217
234
153
217
234
0
0
0
0
0
0
153
217
234
153
217
234
153
217
234
153
217
234
153
217
234
153
217
234
0
0
0
0
0
0
153
217
234
153
217
234
153
217
234
153
217
234
153
217
234
153
217
234
153
217
234
0
0
0
153
217
234
153
217
234
153
217
234
153
217
234
153
217
234
153
217
234
153
217
234
153
217
234
153
217
234
153
217
234
153
217
234
153
217
234
153
217
234
153
217
234
153
217
234
153
217
234
153
217
234
153
217
234
153
217
234
0
0
0
0
0
0
0
0
0
153
217
234
0
0
0
0
0
0
0
0
0
153
217
234
153
217
234
156
90
60
156
90
60
156
90
60
156
90
60
156
90
60
156
90
60
156
90
60
156
90
60
156
90
60
156
90
60
156
90
60
156
90
60
156
90
60
156
90
60
156
90
60
156
90
60
156
90
60
156
90
60
156
90
60
156
90
60
156
90
60
156
90
60
156
90
60
156
90
60
156
90
60
156
90
60
156
90
60
156
90
60
156
90
60
156
90
60
156
90
60
156
90
60
156
90
60
156
90
60
156
90
60
156
90
60
156
90
60
156
90
60
156
90
60
156
90
60
156
90
60
156
90
60
156
90
60
156
90
60
156
90
60
156
90
60
156
90
60
156
90
60
156
90
60
156
90
60
156
90
60
156
90
60
156
90
60
156
90
60
156
90
60
156
90
60
156
90
60
156
90
60
156
90
60
156
90
60
156
90
60
156
90
60
156
90
60
156
90
60
156
90
60
156
90
60
156
90
60
156
90
60
156
90
60
156
90
60
156
90
60
156
90
60
156
90
60
156
90
60
156
90
60
156
90
60
156
90
60
156
90
60
156
90
60
156
90
60
156
90
60
156
90
60
156
90
60
156
90
60
156
90
60
156
90
60
156
90
60
156
90
60
156
90
60
156
90
60
156
90
60
156
90
60
156
90
60
156
90
60
156
90
60
156
90
60
156
90
60
156
90
60
156
90
60
156
90
60
156
90
60
156
90
60
156
90
60
156
90
60
156
90
60
156
90
60
156
90
60
156
90
60
156
90
60
156
90
60
156
90
60
156
90
60
156
90
60
156
90
60
156
90
60
156
90
60
156
90
60
156
90
60
156
90
60
156
90
60
156
90
60
156
90
60
156
90
60
156
90
60
156
90
60
156
90
60
156
90
60
156
90
60
156
90
60
156
90
60
156
90
60
156
90
60
156
90
60
156
90
60
156
90
60
156
90
60
156
90
60
156
90
60
156
90
60
156
90
60
156
90
60
156
90
60
156
90
60
156
90
60
156
90
60
156
90
60
156
90
60
156
90
60
156
90
60
156
90
60
156
90
60
156
90
60
156
90
60
156
90
60
156
90
60
156
90
60
156
90
60
156
90
60
156
90
60
156
90
60
156
90
60
156
90
60
156
90
60
156
90
60
156
90
60
156
90
60
156
90
60
156
90
60
156
90
60
156
90
60
156
90
60
156
90
60
156
90
60
156
90
60
156
90
60
156
90
60
156
90
60
156
90
60
156
90
60
156
90
60
156
90
60
156
90
60
156
90
60
156
90
60
156
90
60
156
90
60
156
90
60
156
90
60
156
90
60
156
90
60
156
90
60
156
90
60
156
90
60
156
90
60
156
90
60
156
90
60
156
90
60
156
90
60
156
90
60
156
90
60
156
90
60
156
90
60
156
90
60
156
90
60
156
90
60
156
90
60
156
90
60
156
90
60
156
90
60
156
90
60
156
90
60
156
90
60
156
90
60
156
90
60
156
90
60
156
90
60
156
90
60
156
90
60
156
90
60
156
90
60
156
90
60
156
90
60
156
90
60
156
90
60
156
90
60
156
90
60
156
90
60
156
90
60
156
90
60
156
90
60
156
90
60
156
90
60
156
90
60
156
90
60
156
90
60
156
90
60
156
90
60
156
90
60
156
90
60
156
90
60
156
90
60
156
90
60
156
90
60
156
90
60
156
90
60
156
90
60
156
90
60
156
90
60
156
90
60
156
90
60
156
90
60
156
90
60
156
90
60
156
90
60
156
90
60
156
90
60
156
90
60
156
90
60
156
90
60
156
90
60
156
90
60
156
90
60
156
90
60
156
90
60
156
90
60
156
90
60
156
90
60
156
90
60
156
90
60
156
90
60
156
90
60
156
90
60
156
90
60
156
90
60
156
90
60
156
90
60
156
90
60
156
90
60
156
90
60
156
90
60
156
90
60
156
90
60
156
90
60
156
90
60
156
90
60
156
90
60
156
90
60
156
90
60
156
90
60
156
90
60
156
90
60
156
90
60
156
90
60
156
90
60
156
90
60
156
90
60
156
90
60
156
90
60
156
90
60
156
90
60
156
90
60
156
90
60
156
90
60
156
90
60
156
90
60
156
90
60
156
90
60
156
90
60
156
90
60
156
90
60
156
90
60
156
90
60
156
90
60
156
90
60
156
90
60
156
90
60
156
90
60
156
90
60
156
90
60
156
90
60
156
90
60
156
90
60
156
90
60
156
90
60
156
90
60
156
90
60
156
90
60
156
90
60
156
90
60
156
90
60
156
90
60
156
90
60
156
90
60
156
90
60
156
90
60
156
90
60
156
90
60
156
90
60
156
90
60
156
90
60
156
90
60
156
90
60
156
90
60
156
90
60
156
90
60
156
90
60
156
90
60
156
90
60
156
90
60
156
90
60
156
90
60
156
90
60
156
90
60
156
90
60
156
90
60
156
90
60
156
90
60
156
90
60
156
90
60
156
90
60
156
90
60
156
90
60
156
90
60
156
90
60
156
90
60
156
90
60
156
90
60
156
90
60
156
90
60
156
90
60
156
90
60
156
90
60
156
90
60
156
90
60
156
90
60
156
90
60
156
90
60
156
90
60
156
90
60
156
90
60
156
90
60
156
90
60
156
90
60
156
90
60
156
90
60
156
90
60
156
90
60
156
90
60
156
90
60
156
90
60
156
90
60
156
90
60
156
90
60
156
90
60
156
90
60
156
90
60
156
90
60
156
90
60
156
90
60
156
90
60
156
90
60
156
90
60
156
90
60
156
90
60
156
90
60
156
90
60
156
90
60
156
90
60
156
90
60
156
90
60
156
90
60
156
90
60
156
90
60
156
90
60
156
90
60
156
90
60
156
90
60
156
90
60
156
90
60
156
90
60
156
90
60
156
90
60
156
90
60
156
90
60
156
90
60
156
90
60
156
90
60
156
90
60
156
90
60
156
90
60
156
90
60
156
90
60
156
90
60
156
90
60
156
90
60
156
90
60
156
90
60
156
90
60
156
90
60
156
90
60
156
90
60
156
90
60
156
90
60
156
90
60
156
90
60
156
90
60
156
90
60
156
90
60
156
90
60
156
90
60
156
90
60
156
90
60
156
90
60
156
90
60
156
90
60
156
90
60
156
90
60
156
90
60
156
90
60
156
90
60
156
90
60
156
90
60
156
90
60
156
90
60
156
90
60
156
90
60
156
90
60
156
90
60
156
90
60
156
90
60
156
90
60
156
90
60
156
90
60
156
90
60
156
90
60
156
90
60
156
90
60
156
90
60
156
90
60
156
90
60
